PathFileType	4	(X/Y/Z)	/Users/itak/Documents/Research/Walk-IL/dataset/trc/00480_00167.trc
DataRate	CameraRate	NumFrames	NumMarkers	Units	OrigDataRate	OrigDataStartFrame	OrigNumFrames
100.000000	100.000000	4	53	mm	100.000000	383	613
Frame#	Time	RPSI			LPSI			L3			STRN			T10			C7			CLAV			RBAK			LBAK			LSHO			LUPA			LAEL			LAOL			LWTS			LWPS			LFRA			LIFD			LHPS			LHTS			RSHO			RUPA			RAEL			RAOL			RWTS			RWPS			RFRA			RIFD			RHTS			RHPS			RBHD			LFHD			RFHD			LBHD			LHIP			RHIP			RASI			LASI			LKNE			LTHI			LANK			LTIP			LTOE			LMT1			LMT5			LHEE			RKNE			RTHI			RANK			RTIP			RTOE			RMT1			RMT5			RHEE			
		X1	Y1	Z1	X2	Y2	Z2	X3	Y3	Z3	X4	Y4	Z4	X5	Y5	Z5	X6	Y6	Z6	X7	Y7	Z7	X8	Y8	Z8	X9	Y9	Z9	X10	Y10	Z10	X11	Y11	Z11	X12	Y12	Z12	X13	Y13	Z13	X14	Y14	Z14	X15	Y15	Z15	X16	Y16	Z16	X17	Y17	Z17	X18	Y18	Z18	X19	Y19	Z19	X20	Y20	Z20	X21	Y21	Z21	X22	Y22	Z22	X23	Y23	Z23	X24	Y24	Z24	X25	Y25	Z25	X26	Y26	Z26	X27	Y27	Z27	X28	Y28	Z28	X29	Y29	Z29	X30	Y30	Z30	X31	Y31	Z31	X32	Y32	Z32	X33	Y33	Z33	X34	Y34	Z34	X35	Y35	Z35	X36	Y36	Z36	X37	Y37	Z37	X38	Y38	Z38	X39	Y39	Z39	X40	Y40	Z40	X41	Y41	Z41	X42	Y42	Z42	X43	Y43	Z43	X44	Y44	Z44	X45	Y45	Z45	X46	Y46	Z46	X47	Y47	Z47	X48	Y48	Z48	X49	Y49	Z49	X50	Y50	Z50	X51	Y51	Z51	X52	Y52	Z52	X53	Y53	Z53	

384	3.83	287.9665832519531	934.9203491210938	-470.3387756347656	259.8849182128906	933.1624145507812	-328.66650390625	248.3867034912109	1031.918212890625	-425.1205139160156	-47.41834259033203	1198.554321289062	-482.3283386230469	244.4374084472656	1151.117919921875	-441.6968078613281	164.8764038085938	1411.1748046875	-497.1343688964844	-18.22599983215332	1314.500610351562	-486.4367980957031	239.4992828369141	1282.166015625	-570.93359375	193.4034729003906	1374.126342773438	-393.1972045898438	86.28599548339844	1398.153686523438	-322.7539978027344	112.6031112670898	1297.303100585938	-211.3804779052734	133.3118133544922	1095.587280273438	-140.5864105224609	207.0852508544922	1079.686767578125	-211.1847534179688	81.79630279541016	878.0881958007812	-132.3984375	143.0309753417969	880.7759399414062	-89.44321441650391	128.2810211181641	1009.317260742188	-112.6114807128906	120.878303527832	724.6648559570312	-97.76213836669922	157.3438873291016	806.330322265625	-78.66143798828125	90.99755096435547	793.6435546875	-107.8154983520508	115.2802505493164	1361.248413085938	-652.1116333007812	137.1140441894531	1297.349731445312	-722.0780029296875	83.61493682861328	1027.5595703125	-786.6490478515625	122.5313720703125	980.38818359375	-754.0294799804688	-111.7401351928711	977.2823486328125	-676.284912109375	-107.3064880371094	918.19384765625	-741.3628540039062	37.3029899597168	990.3001098632812	-780.7875366210938	-237.5807037353516	894.5291137695312	-640.3782958984375	-197.5447387695312	937.2186279296875	-656.9938354492188	-183.2719268798828	880.9465942382812	-710.46533203125	42.66286468505859	1605.930297851562	-594.449462890625	-67.55586242675781	1598.469604492188	-417.8633422851562	-88.70546722412109	1600.590087890625	-546.5650024414062	84.83146667480469	1609.40380859375	-421.5061950683594	114.8545074462891	811.9810791015625	-238.6763000488281	189.516357421875	836.9524536132812	-633.8775634765625	82.28612518310547	876.9161987304688	-581.0077514648438	29.99934196472168	846.2098388671875	-331.7969970703125	177.5675506591797	397.803955078125	-271.4151306152344	119.1084060668945	541.5179443359375	-263.3625183105469	398.296875	52.6454963684082	-160.8388977050781	239.6878662109375	258.3361511230469	-232.1780242919922	250.6779937744141	38.87623596191406	-352.4739379882812	327.6831970214844	46.99197387695312	-329.0872192382812	263.8809204101562	43.74492263793945	-234.5679168701172	471.3484191894531	64.90975189208984	-189.4652404785156	21.56225204467773	473.9737243652344	-641.3634033203125	110.9763946533203	718.482666015625	-659.2147216796875	7.633663654327393	39.3357048034668	-681.2464599609375	-7.865245819091797	332.414794921875	-663.358642578125	-204.2491455078125	50.72645950317383	-616.5383911132812	-137.2744140625	50.35891342163086	-586.5250244140625	-126.4370040893555	45.22059631347656	-692.8341064453125	74.70989227294922	31.11488914489746	-641.6167602539062	
385	3.84	283.5827941894531	934.7478637695312	-473.0074462890625	254.2078094482422	932.9306030273438	-331.5662536621094	243.7213592529297	1031.368408203125	-427.9946594238281	-52.45171737670898	1197.54931640625	-489.5339965820312	238.7638702392578	1151.799194335938	-444.0441589355469	158.8508148193359	1411.280395507812	-500.8948364257812	-23.93742752075195	1313.671508789062	-493.4326477050781	235.2120971679688	1282.553344726562	-573.4736938476562	185.8287963867188	1374.7666015625	-395.9029541015625	76.9259033203125	1397.795532226562	-327.5869140625	100.8756713867188	1295.382446289062	-216.7148132324219	121.8962707519531	1092.69287109375	-149.0161590576172	196.1405029296875	1077.751342773438	-219.2955627441406	73.91694641113281	874.336669921875	-141.9996948242188	134.6278991699219	878.2927856445312	-98.24127960205078	118.1200637817383	1006.343627929688	-121.3813095092773	115.7349243164062	722.0009765625	-105.7312850952148	150.1798553466797	804.4124145507812	-86.93379211425781	84.42961883544922	790.1517944335938	-116.8758926391602	111.5755081176758	1360.833618164062	-656.8692016601562	134.7874908447266	1296.990112304688	-726.38916015625	84.32840728759766	1026.64453125	-791.7882080078125	123.2364120483398	979.9656372070312	-758.6962280273438	-111.763557434082	975.227294921875	-683.5038452148438	-106.1022415161133	915.540283203125	-747.9385986328125	38.30309677124023	988.9677124023438	-786.46044921875	-237.2444458007812	891.752197265625	-647.9649658203125	-197.4286041259766	934.6594848632812	-664.7484741210938	-182.2042083740234	877.7824096679688	-717.5003662109375	36.72867965698242	1604.99072265625	-601.158935546875	-74.00729370117188	1598.335815429688	-425.0086364746094	-94.68746948242188	1599.800659179688	-553.8089599609375	78.35363006591797	1609.4140625	-428.1450500488281	108.5969390869141	811.411865234375	-243.0561676025391	185.8588104248047	836.57373046875	-637.363525390625	78.33079528808594	877.4974365234375	-586.14306640625	24.49853515625	845.8141479492188	-337.0225219726562	170.0081939697266	396.9769897460938	-275.8080444335938	111.9169845581055	541.0531005859375	-268.6078186035156	396.5172119140625	56.48023223876953	-160.4979248046875	234.3527984619141	258.7443237304688	-234.6900939941406	250.5908508300781	38.84229278564453	-352.6112670898438	326.9764709472656	47.61765289306641	-329.0615844726562	262.9412231445312	43.35403442382812	-234.6203002929688	469.3320617675781	70.59239959716797	-188.93701171875	16.4344310760498	474.0520629882812	-643.61767578125	106.9027404785156	718.1738891601562	-662.5762939453125	7.532963275909424	39.40716934204102	-681.1022338867188	-11.56946754455566	331.852294921875	-664.7678833007812	-204.1430206298828	50.19154739379883	-615.9927978515625	-137.2451782226562	50.00701904296875	-586.07275390625	-126.4874877929688	45.39924621582031	-692.5252685546875	74.71642303466797	31.18598747253418	-641.5408325195312	
386	3.85	278.9757690429688	934.6766357421875	-476.2799072265625	248.655029296875	932.9705810546875	-335.0352783203125	239.045654296875	1031.131469726562	-431.3681030273438	-57.34299468994141	1196.932495117188	-496.4434814453125	233.2537231445312	1152.714111328125	-446.6236572265625	152.9457244873047	1411.724609375	-504.5082397460938	-29.42451667785645	1313.208129882812	-500.1639404296875	231.0275421142578	1283.310791015625	-575.926025390625	178.4198303222656	1375.633178710938	-398.50732421875	67.84757995605469	1397.675659179688	-332.2751159667969	89.22682952880859	1293.785034179688	-221.9143524169922	110.2010726928711	1090.088134765625	-157.151611328125	185.3101196289062	1076.170532226562	-226.5806121826172	65.37506103515625	870.9825439453125	-151.9333801269531	125.3032989501953	875.9893798828125	-107.0688018798828	107.4107818603516	1003.619689941406	-130.0189361572266	109.6342697143555	719.5958862304688	-114.2220840454102	141.9471588134766	802.6259155273438	-95.34178924560547	76.99794769287109	786.9234619140625	-126.4444198608398	107.9457092285156	1360.749755859375	-661.4603881835938	132.5586700439453	1296.965454101562	-730.5115356445312	85.35726165771484	1025.978515625	-796.6961669921875	124.2800445556641	979.8872680664062	-763.0449829101562	-111.4804153442383	972.3509521484375	-691.1445922851562	-104.0876312255859	912.1680908203125	-754.965087890625	39.78908920288086	987.6315307617188	-792.0988159179688	-236.3687744140625	887.598388671875	-656.58447265625	-196.8802185058594	930.89990234375	-673.3204956054688	-180.2269134521484	873.568115234375	-725.260986328125	30.73568153381348	1604.304565429688	-607.7523803710938	-80.61102294921875	1598.396240234375	-432.0755615234375	-100.7632064819336	1599.072387695312	-560.9631958007812	71.69810485839844	1609.8720703125	-434.65966796875	102.5147018432617	811.4935302734375	-247.4124755859375	181.5738067626953	836.0695190429688	-641.0438232421875	73.88205718994141	877.8145751953125	-591.1373291015625	19.00885009765625	845.982177734375	-341.9855041503906	161.9655456542969	396.5033569335938	-280.1764526367188	104.3662490844727	541.0964965820312	-273.63525390625	394.2403869628906	60.85819625854492	-160.0912017822266	228.4890289306641	259.5625	-237.1274108886719	250.563232421875	38.87074279785156	-352.7275390625	326.102294921875	48.35385513305664	-328.9693603515625	261.7782287597656	42.99822235107422	-234.6402130126953	466.7080078125	76.9752197265625	-188.3317108154297	11.55663585662842	473.86669921875	-645.9649047851562	102.4892807006836	717.629150390625	-665.9901123046875	7.488561630249023	39.43236541748047	-680.997314453125	-14.90297698974609	331.1752624511719	-666.2606201171875	-203.9949493408203	49.91797637939453	-615.6704711914062	-137.2301635742188	49.81254577636719	-585.7522583007812	-126.4922180175781	45.53327941894531	-692.3328247070312	74.76934051513672	31.22688293457031	-641.436767578125	
387	3.86	274.1604919433594	934.77783203125	-480.0742797851562	243.2248229980469	933.276611328125	-338.9931640625	234.3029479980469	1031.286865234375	-435.18994140625	-62.1358642578125	1196.74658203125	-503.0468139648438	227.9085845947266	1153.864868164062	-449.4553833007812	147.190185546875	1412.5	-508.0116577148438	-34.70240783691406	1313.14990234375	-506.6022644042969	226.9311981201172	1284.443359375	-578.3474731445312	171.2396850585938	1376.701416015625	-401.0955810546875	59.15461730957031	1397.806518554688	-336.8551635742188	77.81417846679688	1292.566650390625	-227.0136566162109	98.29911804199219	1087.840087890625	-164.967529296875	174.6882781982422	1074.993530273438	-232.9519805908203	56.17844390869141	868.1126708984375	-162.1728057861328	114.9940032958984	873.8834228515625	-115.8736114501953	96.16526794433594	1001.21435546875	-138.5025177001953	102.4091339111328	717.4471435546875	-123.3488159179688	132.5220642089844	800.926513671875	-103.8729553222656	68.62491607666016	784.0399169921875	-136.5714263916016	104.4056243896484	1361.05126953125	-665.9031372070312	130.4194946289062	1297.321655273438	-734.464111328125	86.64994812011719	1025.608276367188	-801.3358764648438	125.6013717651367	980.1928100585938	-767.0338745117188	-110.857536315918	968.6492919921875	-699.1729736328125	-101.2277603149414	908.133544921875	-762.4207153320312	41.71894836425781	986.3562622070312	-797.6396484375	-234.8923034667969	882.0728759765625	-666.2312622070312	-195.8391418457031	925.9408569335938	-682.6854858398438	-177.2995147705078	868.3446044921875	-733.7261352539062	24.70406723022461	1603.868408203125	-614.189453125	-87.33658599853516	1598.659790039062	-439.0200500488281	-106.9055252075195	1598.407836914062	-567.9834594726562	64.89680480957031	1610.780883789062	-441.0176391601562	96.5623779296875	812.1535034179688	-251.7528686523438	176.740966796875	835.603271484375	-644.8876953125	68.97378540039062	877.9723510742188	-595.9723510742188	13.4997501373291	846.7042846679688	-346.6881713867188	153.3961029052734	396.3181762695312	-284.5618591308594	96.39060974121094	541.570068359375	-278.5013427734375	391.453125	65.74993133544922	-159.6967620849609	222.0649719238281	260.7632446289062	-239.5128479003906	250.5902557373047	38.96272277832031	-352.8105773925781	325.0513000488281	49.20130157470703	-328.8396301269531	260.4382934570312	42.69442749023438	-234.6788330078125	463.438232421875	84.037841796875	-187.7541046142578	6.902402400970459	473.5072326660156	-648.389404296875	97.71390533447266	716.9685668945312	-669.4366455078125	7.500820159912109	39.42685699462891	-680.9329833984375	-17.9155101776123	330.4376220703125	-667.8310546875	-203.8362426757812	49.85516738891602	-615.5184936523438	-137.2195434570312	49.76478958129883	-585.562255859375	-126.4562454223633	45.6134147644043	-692.25439453125	74.85857391357422	31.23084831237793	-641.3267211914062	
